<?xml version="1.0" encoding="UTF-8" standalone="no"?>
<svg
   xmlns:dc="http://purl.org/dc/elements/1.1/"
   xmlns:cc="http://creativecommons.org/ns#"
   xmlns:rdf="http://www.w3.org/1999/02/22-rdf-syntax-ns#"
   xmlns:svg="http://www.w3.org/2000/svg"
   xmlns="http://www.w3.org/2000/svg"
   xmlns:sodipodi="http://sodipodi.sourceforge.net/DTD/sodipodi-0.dtd"
   xmlns:inkscape="http://www.inkscape.org/namespaces/inkscape"
   inkscape:version="1.0 (4035a4fb49, 2020-05-01)"
   sodipodi:docname="calendar.svg"
   id="svg10"
   version="1.1"
   fill="none"
   viewBox="0 0 46 45"
   height="45"
   width="46">
  <style></style>
  <metadata
     id="metadata16">
    <rdf:RDF>
      <cc:Work
         rdf:about="">
        <dc:format>image/svg+xml</dc:format>
        <dc:type
           rdf:resource="http://purl.org/dc/dcmitype/StillImage" />
      </cc:Work>
    </rdf:RDF>
  </metadata>
  <defs
     id="defs14" />
  <sodipodi:namedview
     inkscape:current-layer="svg10"
     inkscape:window-maximized="1"
     inkscape:window-y="-9"
     inkscape:window-x="-9"
     inkscape:cy="19.27646"
     inkscape:cx="23.737621"
     inkscape:zoom="7.229185"
     showgrid="false"
     id="namedview12"
     inkscape:window-height="1051"
     inkscape:window-width="1920"
     inkscape:pageshadow="2"
     inkscape:pageopacity="0"
     guidetolerance="10"
     gridtolerance="10"
     objecttolerance="10"
     borderopacity="1"
     bordercolor="#666666"
     pagecolor="#ffffff" />
  <g
     style="fill:#ffffff"
     id="g847">
    <path
       style="fill:#ffffff"
       d="M 43.7658,26.2257 45.4316,12.8995 C 45.7768,10.1333 43.6199,7.69141 40.8328,7.69141 H 4.99675 c -2.78709,0 -4.9440203,2.44189 -4.598819,5.20809 L 2.0637,26.2257 0.397931,39.5518 C 0.0527297,42.3181 2.20966,44.76 4.99675,44.76 H 40.8351 c 2.7871,0 4.944,-2.4419 4.5988,-5.2082 z M 16.166,37.8096 c -2.9146,0 -4.6637,-1.207 -5.6762,-2.618 -0.87338,-1.2163 -0.1992,-2.9376 1.2511,-3.3083 0.8989,-0.2294 1.8048,0.1645 2.34,0.9221 0.366,0.5189 0.9452,0.9591 1.8789,0.9591 1.8047,0 2.2125,-1.8627 2.2125,-2.7153 0,-1.8997 -1.2024,-2.6573 -2.8612,-2.6573 H 15.274 c -0.9615,0 -1.7399,-0.7785 -1.7399,-1.7399 0,-0.9615 0.7784,-1.7399 1.7399,-1.7399 h 0.1552 c 0.7877,0 2.4489,-0.2734 2.4489,-2.6296 0,-0.5884 -0.2387,-2.2125 -1.9206,-2.2125 -0.7229,0 -1.1932,0.3521 -1.5013,0.7761 -0.4819,0.6603 -1.2696,1.0194 -2.062,0.8225 l -0.2687,-0.0672 c -1.2997,-0.3221 -1.9137,-1.8534 -1.1422,-2.947 0.9244,-1.3136 2.5415,-2.6272 5.3008,-2.6272 3.4868,0 6.0491,2.2797 6.0491,5.6692 0,2.8681 -1.5499,4.3903 -2.8612,4.7494 v 0.0903 c 1.1237,0.2456 3.2736,1.6357 3.2736,4.7216 0,4.7031 -3.489,6.5519 -6.5796,6.5519 z m 18.335,-2.3168 c 0,1.2789 -1.0379,2.3168 -2.3168,2.3168 -1.2789,0 -2.3168,-1.0379 -2.3168,-2.3168 V 22.403 l -1.2441,0.9383 c -0.9985,0.7553 -2.4349,0.461 -3.0558,-0.6255 -0.5259,-0.9175 -0.278,-2.0852 0.5769,-2.7107 l 3.4033,-2.4928 c 0.5329,-0.3916 1.1793,-0.6024 1.8395,-0.6024 1.7214,0 3.1138,1.3947 3.1138,3.1161 z"
       fill="#ffffff"
       id="path2" />
    <path
       style="fill:#ffffff"
       opacity="0.35"
       d="M 29.8651,35.4933 V 22.4035 l -1.2441,0.9383 c -0.9985,0.7553 -2.4349,0.461 -3.0558,-0.6255 -0.5259,-0.9175 -0.278,-2.0851 0.5768,-2.7107 l 3.4034,-2.4928 c 0.5329,-0.3916 1.1792,-0.6024 1.8395,-0.6024 1.7214,0 3.1161,1.3947 3.1161,3.1161 v 15.4668 c 0,1.2789 -1.0379,2.3168 -2.3168,2.3168 -1.2812,0 -2.3191,-1.0379 -2.3191,-2.3168 z"
       fill="#ffffff"
       id="path4" />
    <path
       style="fill:#ffffff"
       opacity="0.35"
       d="m 22.7456,31.2551 c 0,4.7054 -3.4891,6.5542 -6.5797,6.5542 -2.9145,0 -4.666,-1.2048 -5.6761,-2.618 -0.87347,-1.2163 -0.1993,-2.9377 1.251,-3.3084 0.8989,-0.2293 1.8071,0.1645 2.34,0.9221 0.366,0.519 0.9452,0.9592 1.8789,0.9592 1.8048,0 2.2125,-1.8627 2.2125,-2.7153 0,-1.9021 -1.2024,-2.6574 -2.8612,-2.6574 h -0.0371 c -0.9614,0 -1.7399,-0.7784 -1.7399,-1.7399 0,-0.9614 0.7785,-1.7399 1.7399,-1.7399 h 0.1552 c 0.7878,0 2.4512,-0.2734 2.4512,-2.6295 0,-0.5885 -0.2386,-2.2126 -1.9206,-2.2126 -0.7228,0 -1.1932,0.3522 -1.5013,0.7762 -0.4819,0.6603 -1.2696,1.0194 -2.0619,0.8224 L 12.1277,21.601 c -1.2997,-0.322 -1.9136,-1.8534 -1.1421,-2.9469 0.9244,-1.3136 2.5415,-2.6272 5.3008,-2.6272 3.4867,0 6.0491,2.2797 6.0491,5.6691 0,2.8682 -1.5499,4.3903 -2.8612,4.7494 v 0.0904 c 1.1213,0.2433 3.2713,1.6333 3.2713,4.7193 z"
       fill="#ffffff"
       id="path6" />
    <path
       style="fill:#ffffff"
       opacity="0.35"
       d="M 36.8153,0.741211 H 9.01394 c -2.56005,0 -4.63357,2.073519 -4.63357,4.633569 V 7.69156 H 41.4489 V 5.37478 c 0,-2.56005 -2.0735,-4.633569 -4.6336,-4.633569 z"
       fill="#ffffff"
       id="path8" />
  </g>
</svg>
