<svg width="72" height="70" viewBox="0 0 72 70" fill="none" xmlns="http://www.w3.org/2000/svg">
<path d="M31.9589 0.24989C15.3653 2.05505 2.01822 15.4133 0.214569 31.6597C-1.58909 48.6283 8.15065 63.7916 22.9406 69.5681C24.0228 69.9292 25.105 69.2071 25.105 67.763V61.9865C25.105 61.9865 23.6621 62.3475 21.8584 62.3475C16.8082 62.3475 14.6438 58.0151 14.2831 55.4879C13.9223 54.0437 13.2009 52.9606 12.1187 51.8776C11.0365 51.5165 10.6758 51.5165 10.6758 51.1555C10.6758 50.4334 11.758 50.4334 12.1187 50.4334C14.2831 50.4334 16.0867 52.9607 16.8082 54.0437C18.6118 56.932 20.7762 57.6541 21.8584 57.6541C23.3013 57.6541 24.3835 57.293 25.105 56.932C25.4657 54.4048 26.5479 51.8776 28.7123 50.4334C20.4155 48.6283 14.2831 43.9348 14.2831 35.9921C14.2831 32.0208 16.0867 28.0494 18.6118 25.1611C18.2511 24.4391 17.8904 22.6339 17.8904 20.1067C17.8904 18.6626 17.8904 16.8574 18.6118 15.4133C18.6118 14.6912 19.3333 14.3302 19.694 14.3302H20.0548C21.8584 14.6912 25.4657 15.7743 28.7123 19.0236C30.8767 18.3015 33.4018 17.9405 35.9269 17.9405C38.452 17.9405 40.9771 18.3015 43.1415 19.0236C46.3881 15.7743 50.3562 14.6912 52.1598 14.3302H52.5205C53.242 14.3302 53.6027 14.6912 53.9635 15.4133C53.9635 16.8574 53.9635 18.6626 53.9635 20.1067C53.9635 22.9949 53.6027 24.4391 53.242 25.1611C55.7671 28.0494 57.5708 31.6597 57.5708 35.9921C57.5708 43.9348 51.4383 48.6283 43.1415 50.4334C45.3059 52.2386 46.7488 55.4879 46.7488 58.7372V68.124C46.7488 69.2071 47.831 70.2902 49.274 69.9292C62.621 64.5137 72 51.5165 72 36.3532C72 14.6912 53.6027 -2.27734 31.9589 0.24989Z" fill="black"/>
</svg>
