<svg width="45" height="45" viewBox="0 0 45 45" fill="none" xmlns="http://www.w3.org/2000/svg">
<path d="M22.5477 0.680176C10.3866 0.680176 0.526611 10.5401 0.526611 22.7013C0.526611 34.8624 10.3866 44.7224 22.5477 44.7224C34.7089 44.7224 44.5688 34.8624 44.5688 22.7013C44.5688 10.5401 34.7089 0.680176 22.5477 0.680176ZM12.8884 11.7839C13.0695 11.8171 13.2449 11.8913 13.4045 12.0133C15.1882 13.3768 17.1584 14.214 18.175 14.5939C19.5422 14.148 21.0099 13.8914 22.5477 13.8914C24.0855 13.8914 25.5532 14.148 26.9204 14.5939C27.937 14.2122 29.9072 13.3749 31.6909 12.0133C32.3295 11.5252 33.256 11.777 33.5368 12.5294C34.3442 14.693 35.3933 18.9467 35.3933 25.4539C35.3933 31.8382 29.6403 37.0164 22.5477 37.0164C15.4551 37.0164 9.70207 31.8382 9.70207 25.4539C9.70207 18.9467 10.7512 14.693 11.5587 12.5294C11.7692 11.9651 12.3452 11.6845 12.8884 11.7839ZM17.0424 20.8662C16.069 20.8662 15.1355 21.2529 14.4472 21.9412C13.7589 22.6294 13.3723 23.563 13.3723 24.5364C13.3723 25.5098 13.7589 26.4433 14.4472 27.1316C15.1355 27.8199 16.069 28.2065 17.0424 28.2065C18.0158 28.2065 18.9494 27.8199 19.6376 27.1316C20.3259 26.4433 20.7126 25.5098 20.7126 24.5364C20.7126 23.563 20.3259 22.6294 19.6376 21.9412C18.9494 21.2529 18.0158 20.8662 17.0424 20.8662ZM28.053 20.8662C27.0796 20.8662 26.1461 21.2529 25.4578 21.9412C24.7695 22.6294 24.3828 23.563 24.3828 24.5364C24.3828 25.5098 24.7695 26.4433 25.4578 27.1316C26.1461 27.8199 27.0796 28.2065 28.053 28.2065C29.0264 28.2065 29.9599 27.8199 30.6482 27.1316C31.3365 26.4433 31.7232 25.5098 31.7232 24.5364C31.7232 23.563 31.3365 22.6294 30.6482 21.9412C29.9599 21.2529 29.0264 20.8662 28.053 20.8662ZM20.7126 28.2065C20.7126 29.2195 21.5347 30.0416 22.5477 30.0416C23.5607 30.0416 24.3828 29.2195 24.3828 28.2065H20.7126Z" fill="black"/>
</svg>
