<svg width="53" height="56" viewBox="0 0 53 56" fill="none" xmlns="http://www.w3.org/2000/svg">
<path d="M22.3098 0C20.9804 0 19.8439 0.948063 19.5886 2.26406L18.6617 7.06563C16.3837 7.93464 14.2774 9.14873 12.4278 10.6805L7.8636 9.09453C6.60634 8.65773 5.22306 9.18221 4.55697 10.3414L0.372179 17.6586C-0.291143 18.8206 -0.049726 20.2958 0.952195 21.175L4.61117 24.3852C4.42088 25.5649 4.29677 26.766 4.29677 28C4.29677 29.234 4.42088 30.4351 4.61117 31.6148L0.952195 34.825C-0.049726 35.7042 -0.291143 37.1794 0.372179 38.3414L4.55697 45.6586C5.22029 46.8206 6.60634 47.3449 7.8636 46.9109L12.4278 45.325C14.2768 46.8558 16.3847 48.0658 18.6617 48.9344L19.5886 53.7359C19.8439 55.0519 20.9804 56 22.3098 56H30.6902C32.0196 56 33.1561 55.0519 33.4114 53.7359L34.3383 48.9344C36.6163 48.0654 38.7226 46.8513 40.5722 45.3195L45.1364 46.9055C46.3937 47.3423 47.7769 46.8206 48.443 45.6586L52.6278 38.3359C53.2911 37.1739 53.0497 35.7042 52.0478 34.825L48.3888 31.6148C48.5791 30.4351 48.7032 29.234 48.7032 28C48.7032 26.766 48.5791 25.5649 48.3888 24.3852L52.0478 21.175C53.0497 20.2958 53.2911 18.8206 52.6278 17.6586L48.443 10.3414C47.7797 9.17941 46.3937 8.65506 45.1364 9.08906L40.5722 10.675C38.7232 9.14422 36.6153 7.93425 34.3383 7.06563L33.4114 2.26406C33.1561 0.948062 32.0196 0 30.6902 0H22.3098ZM26.5 16.8C32.6309 16.8 37.6016 21.8148 37.6016 28C37.6016 34.1852 32.6309 39.2 26.5 39.2C20.3691 39.2 15.3984 34.1852 15.3984 28C15.3984 21.8148 20.3691 16.8 26.5 16.8Z" fill="white"/>
</svg>
